<mxfile host="app.diagrams.net" agent="Mozilla/5.0 (Windows NT 10.0; Win64; x64) AppleWebKit/537.36 (KHTML, like Gecko) Chrome/113.0.0.0 Safari/537.36" version="24.7.7">
  <diagram name="Page-1" id="tDCHcLKuwZKlSC-C740e">
    <mxGraphModel dx="1434" dy="1818" grid="1" gridSize="10" guides="1" tooltips="1" connect="1" arrows="1" fold="1" page="1" pageScale="1" pageWidth="850" pageHeight="1100" math="0" shadow="0">
      <root>
        <mxCell id="0" />
        <mxCell id="1" parent="0" />
        <mxCell id="VU2UuEI_NbV8B1_qW69L-1" style="edgeStyle=orthogonalEdgeStyle;rounded=0;orthogonalLoop=1;jettySize=auto;html=1;entryX=0;entryY=0.5;entryDx=0;entryDy=0;" edge="1" parent="1" source="VU2UuEI_NbV8B1_qW69L-12" target="VU2UuEI_NbV8B1_qW69L-8">
          <mxGeometry relative="1" as="geometry" />
        </mxCell>
        <mxCell id="VU2UuEI_NbV8B1_qW69L-2" style="edgeStyle=orthogonalEdgeStyle;rounded=0;orthogonalLoop=1;jettySize=auto;html=1;entryX=0;entryY=0.5;entryDx=0;entryDy=0;" edge="1" parent="1" source="VU2UuEI_NbV8B1_qW69L-3" target="VU2UuEI_NbV8B1_qW69L-25">
          <mxGeometry relative="1" as="geometry">
            <Array as="points">
              <mxPoint x="210" y="380" />
              <mxPoint x="210" y="455" />
            </Array>
          </mxGeometry>
        </mxCell>
        <mxCell id="VU2UuEI_NbV8B1_qW69L-3" value="User" style="ellipse;whiteSpace=wrap;html=1;aspect=fixed;" vertex="1" parent="1">
          <mxGeometry x="100" y="340" width="80" height="80" as="geometry" />
        </mxCell>
        <mxCell id="VU2UuEI_NbV8B1_qW69L-4" value="Streaming data pipeline" style="ellipse;whiteSpace=wrap;html=1;aspect=fixed;" vertex="1" parent="1">
          <mxGeometry x="92" y="43" width="80" height="80" as="geometry" />
        </mxCell>
        <mxCell id="VU2UuEI_NbV8B1_qW69L-5" value="Consumer" style="swimlane;fontStyle=0;childLayout=stackLayout;horizontal=1;startSize=30;horizontalStack=0;resizeParent=1;resizeParentMax=0;resizeLast=0;collapsible=1;marginBottom=0;whiteSpace=wrap;html=1;" vertex="1" parent="1">
          <mxGeometry x="695" y="120" width="140" height="90" as="geometry" />
        </mxCell>
        <mxCell id="VU2UuEI_NbV8B1_qW69L-6" value="Lấy dữ liệu từ kafka topic" style="text;strokeColor=none;fillColor=none;align=left;verticalAlign=middle;spacingLeft=4;spacingRight=4;overflow=hidden;points=[[0,0.5],[1,0.5]];portConstraint=eastwest;rotatable=0;whiteSpace=wrap;html=1;" vertex="1" parent="VU2UuEI_NbV8B1_qW69L-5">
          <mxGeometry y="30" width="140" height="60" as="geometry" />
        </mxCell>
        <mxCell id="VU2UuEI_NbV8B1_qW69L-7" style="edgeStyle=orthogonalEdgeStyle;rounded=0;orthogonalLoop=1;jettySize=auto;html=1;exitX=0.75;exitY=0;exitDx=0;exitDy=0;entryX=0.75;entryY=1;entryDx=0;entryDy=0;" edge="1" parent="1" source="VU2UuEI_NbV8B1_qW69L-8" target="VU2UuEI_NbV8B1_qW69L-48">
          <mxGeometry relative="1" as="geometry" />
        </mxCell>
        <mxCell id="VU2UuEI_NbV8B1_qW69L-8" value="Web Backend" style="swimlane;fontStyle=0;childLayout=stackLayout;horizontal=1;startSize=30;horizontalStack=0;resizeParent=1;resizeParentMax=0;resizeLast=0;collapsible=1;marginBottom=0;whiteSpace=wrap;html=1;" vertex="1" parent="1">
          <mxGeometry x="330" y="220" width="140" height="120" as="geometry" />
        </mxCell>
        <mxCell id="VU2UuEI_NbV8B1_qW69L-9" value="- Authenticate" style="text;strokeColor=none;fillColor=none;align=left;verticalAlign=middle;spacingLeft=4;spacingRight=4;overflow=hidden;points=[[0,0.5],[1,0.5]];portConstraint=eastwest;rotatable=0;whiteSpace=wrap;html=1;" vertex="1" parent="VU2UuEI_NbV8B1_qW69L-8">
          <mxGeometry y="30" width="140" height="30" as="geometry" />
        </mxCell>
        <mxCell id="VU2UuEI_NbV8B1_qW69L-10" value="- Xử lý dữ liệu upload và biến dó về dạng streaming data" style="text;strokeColor=none;fillColor=none;align=left;verticalAlign=middle;spacingLeft=4;spacingRight=4;overflow=hidden;points=[[0,0.5],[1,0.5]];portConstraint=eastwest;rotatable=0;whiteSpace=wrap;html=1;" vertex="1" parent="VU2UuEI_NbV8B1_qW69L-8">
          <mxGeometry y="60" width="140" height="60" as="geometry" />
        </mxCell>
        <mxCell id="VU2UuEI_NbV8B1_qW69L-11" value="" style="edgeStyle=orthogonalEdgeStyle;rounded=0;orthogonalLoop=1;jettySize=auto;html=1;entryX=0;entryY=0.5;entryDx=0;entryDy=0;" edge="1" parent="1" source="VU2UuEI_NbV8B1_qW69L-3" target="VU2UuEI_NbV8B1_qW69L-12">
          <mxGeometry relative="1" as="geometry">
            <mxPoint x="180" y="380" as="sourcePoint" />
            <mxPoint x="290" y="380" as="targetPoint" />
            <Array as="points">
              <mxPoint x="210" y="380" />
              <mxPoint x="210" y="280" />
            </Array>
          </mxGeometry>
        </mxCell>
        <mxCell id="VU2UuEI_NbV8B1_qW69L-12" value="Request Upload" style="text;html=1;align=center;verticalAlign=middle;whiteSpace=wrap;rounded=0;" vertex="1" parent="1">
          <mxGeometry x="230" y="265" width="60" height="30" as="geometry" />
        </mxCell>
        <mxCell id="VU2UuEI_NbV8B1_qW69L-13" style="edgeStyle=orthogonalEdgeStyle;rounded=0;orthogonalLoop=1;jettySize=auto;html=1;entryX=0.649;entryY=0.018;entryDx=0;entryDy=0;entryPerimeter=0;" edge="1" parent="1" source="VU2UuEI_NbV8B1_qW69L-14" target="VU2UuEI_NbV8B1_qW69L-18">
          <mxGeometry relative="1" as="geometry">
            <Array as="points">
              <mxPoint x="990" y="290" />
              <mxPoint x="831" y="290" />
            </Array>
          </mxGeometry>
        </mxCell>
        <mxCell id="VU2UuEI_NbV8B1_qW69L-14" value="S3 Minio" style="shape=cylinder3;whiteSpace=wrap;html=1;boundedLbl=1;backgroundOutline=1;size=15;" vertex="1" parent="1">
          <mxGeometry x="960" y="125" width="60" height="80" as="geometry" />
        </mxCell>
        <mxCell id="VU2UuEI_NbV8B1_qW69L-15" value="Image, Log file, Annotation" style="text;html=1;align=center;verticalAlign=middle;whiteSpace=wrap;rounded=0;rotation=0;" vertex="1" parent="1">
          <mxGeometry x="856" y="150" width="85" height="30" as="geometry" />
        </mxCell>
        <mxCell id="VU2UuEI_NbV8B1_qW69L-16" value="Postgres" style="shape=cylinder3;whiteSpace=wrap;html=1;boundedLbl=1;backgroundOutline=1;size=15;" vertex="1" parent="1">
          <mxGeometry x="1030" y="335" width="60" height="80" as="geometry" />
        </mxCell>
        <mxCell id="VU2UuEI_NbV8B1_qW69L-17" style="edgeStyle=orthogonalEdgeStyle;rounded=0;orthogonalLoop=1;jettySize=auto;html=1;entryX=1;entryY=0.5;entryDx=0;entryDy=0;" edge="1" parent="1" source="VU2UuEI_NbV8B1_qW69L-18" target="VU2UuEI_NbV8B1_qW69L-25">
          <mxGeometry relative="1" as="geometry">
            <Array as="points">
              <mxPoint x="630" y="380" />
              <mxPoint x="630" y="455" />
            </Array>
          </mxGeometry>
        </mxCell>
        <mxCell id="VU2UuEI_NbV8B1_qW69L-18" value="Workflow" style="swimlane;fontStyle=0;childLayout=stackLayout;horizontal=1;startSize=30;horizontalStack=0;resizeParent=1;resizeParentMax=0;resizeLast=0;collapsible=1;marginBottom=0;whiteSpace=wrap;html=1;" vertex="1" parent="1">
          <mxGeometry x="740" y="310" width="140" height="130" as="geometry">
            <mxRectangle x="740" y="310" width="90" height="30" as="alternateBounds" />
          </mxGeometry>
        </mxCell>
        <mxCell id="VU2UuEI_NbV8B1_qW69L-19" value="Flyte/Airflow" style="text;strokeColor=none;fillColor=none;align=left;verticalAlign=middle;spacingLeft=4;spacingRight=4;overflow=hidden;points=[[0,0.5],[1,0.5]];portConstraint=eastwest;rotatable=0;whiteSpace=wrap;html=1;" vertex="1" parent="VU2UuEI_NbV8B1_qW69L-18">
          <mxGeometry y="30" width="140" height="30" as="geometry" />
        </mxCell>
        <mxCell id="VU2UuEI_NbV8B1_qW69L-20" value="Tiến Hành convert dữ liệu về format deeplake, và lưu thông tin dataset vào DB&lt;div&gt;&lt;br&gt;&lt;/div&gt;" style="text;strokeColor=none;fillColor=none;align=left;verticalAlign=middle;spacingLeft=4;spacingRight=4;overflow=hidden;points=[[0,0.5],[1,0.5]];portConstraint=eastwest;rotatable=0;whiteSpace=wrap;html=1;" vertex="1" parent="VU2UuEI_NbV8B1_qW69L-18">
          <mxGeometry y="60" width="140" height="70" as="geometry" />
        </mxCell>
        <mxCell id="VU2UuEI_NbV8B1_qW69L-21" style="edgeStyle=orthogonalEdgeStyle;rounded=0;orthogonalLoop=1;jettySize=auto;html=1;entryX=0;entryY=0.5;entryDx=0;entryDy=0;entryPerimeter=0;" edge="1" parent="1" source="VU2UuEI_NbV8B1_qW69L-18" target="VU2UuEI_NbV8B1_qW69L-16">
          <mxGeometry relative="1" as="geometry" />
        </mxCell>
        <mxCell id="VU2UuEI_NbV8B1_qW69L-22" value="Deeplake dataset, Config" style="text;html=1;align=center;verticalAlign=middle;whiteSpace=wrap;rounded=0;" vertex="1" parent="1">
          <mxGeometry x="820" y="240" width="120" height="30" as="geometry" />
        </mxCell>
        <mxCell id="VU2UuEI_NbV8B1_qW69L-23" value="Dataset deeplake information" style="text;html=1;align=center;verticalAlign=middle;whiteSpace=wrap;rounded=0;rotation=0;" vertex="1" parent="1">
          <mxGeometry x="630" y="380" width="110" height="30" as="geometry" />
        </mxCell>
        <mxCell id="VU2UuEI_NbV8B1_qW69L-24" value="API Web Service" style="swimlane;fontStyle=0;childLayout=stackLayout;horizontal=1;startSize=30;horizontalStack=0;resizeParent=1;resizeParentMax=0;resizeLast=0;collapsible=1;marginBottom=0;whiteSpace=wrap;html=1;" vertex="1" parent="1">
          <mxGeometry x="330" y="410" width="140" height="90" as="geometry" />
        </mxCell>
        <mxCell id="VU2UuEI_NbV8B1_qW69L-25" value="Authenticate" style="text;strokeColor=none;fillColor=none;align=left;verticalAlign=middle;spacingLeft=4;spacingRight=4;overflow=hidden;points=[[0,0.5],[1,0.5]];portConstraint=eastwest;rotatable=0;whiteSpace=wrap;html=1;" vertex="1" parent="VU2UuEI_NbV8B1_qW69L-24">
          <mxGeometry y="30" width="140" height="30" as="geometry" />
        </mxCell>
        <mxCell id="VU2UuEI_NbV8B1_qW69L-26" value="Endpoint" style="text;strokeColor=none;fillColor=none;align=left;verticalAlign=middle;spacingLeft=4;spacingRight=4;overflow=hidden;points=[[0,0.5],[1,0.5]];portConstraint=eastwest;rotatable=0;whiteSpace=wrap;html=1;" vertex="1" parent="VU2UuEI_NbV8B1_qW69L-24">
          <mxGeometry y="60" width="140" height="30" as="geometry" />
        </mxCell>
        <mxCell id="VU2UuEI_NbV8B1_qW69L-27" value="Request trigger WL" style="text;html=1;align=center;verticalAlign=middle;whiteSpace=wrap;rounded=0;rotation=0;" vertex="1" parent="1">
          <mxGeometry x="483" y="404" width="110" height="30" as="geometry" />
        </mxCell>
        <mxCell id="VU2UuEI_NbV8B1_qW69L-28" value="workflow log" style="text;html=1;align=center;verticalAlign=middle;whiteSpace=wrap;rounded=0;" vertex="1" parent="1">
          <mxGeometry x="923" y="349" width="80" height="30" as="geometry" />
        </mxCell>
        <mxCell id="VU2UuEI_NbV8B1_qW69L-29" style="edgeStyle=orthogonalEdgeStyle;rounded=0;orthogonalLoop=1;jettySize=auto;html=1;entryX=0;entryY=0.5;entryDx=0;entryDy=0;entryPerimeter=0;" edge="1" parent="1" source="VU2UuEI_NbV8B1_qW69L-5" target="VU2UuEI_NbV8B1_qW69L-14">
          <mxGeometry relative="1" as="geometry" />
        </mxCell>
        <mxCell id="VU2UuEI_NbV8B1_qW69L-30" style="edgeStyle=orthogonalEdgeStyle;rounded=0;orthogonalLoop=1;jettySize=auto;html=1;entryX=0;entryY=0.5;entryDx=0;entryDy=0;exitX=1;exitY=0.25;exitDx=0;exitDy=0;" edge="1" parent="1" source="VU2UuEI_NbV8B1_qW69L-24" target="VU2UuEI_NbV8B1_qW69L-19">
          <mxGeometry relative="1" as="geometry">
            <Array as="points">
              <mxPoint x="470" y="430" />
              <mxPoint x="605" y="430" />
              <mxPoint x="605" y="355" />
            </Array>
          </mxGeometry>
        </mxCell>
        <mxCell id="VU2UuEI_NbV8B1_qW69L-31" value="Image, Annotation" style="text;html=1;align=center;verticalAlign=middle;whiteSpace=wrap;rounded=0;" vertex="1" parent="1">
          <mxGeometry x="870" y="284" width="110" height="30" as="geometry" />
        </mxCell>
        <mxCell id="VU2UuEI_NbV8B1_qW69L-32" value="Dataset Information" style="text;html=1;align=center;verticalAlign=middle;whiteSpace=wrap;rounded=0;" vertex="1" parent="1">
          <mxGeometry x="730" y="450" width="120" height="30" as="geometry" />
        </mxCell>
        <mxCell id="VU2UuEI_NbV8B1_qW69L-33" value="Dataset, Dataset info" style="text;html=1;align=center;verticalAlign=middle;whiteSpace=wrap;rounded=0;rotation=90;" vertex="1" parent="1">
          <mxGeometry x="401" y="150" width="109" height="30" as="geometry" />
        </mxCell>
        <mxCell id="VU2UuEI_NbV8B1_qW69L-34" value="Request API" style="text;html=1;align=center;verticalAlign=middle;whiteSpace=wrap;rounded=0;" vertex="1" parent="1">
          <mxGeometry x="230" y="430" width="70" height="30" as="geometry" />
        </mxCell>
        <mxCell id="VU2UuEI_NbV8B1_qW69L-35" value="" style="endArrow=classic;startArrow=classic;html=1;rounded=0;entryX=0.5;entryY=1;entryDx=0;entryDy=0;entryPerimeter=0;exitX=1;exitY=0.333;exitDx=0;exitDy=0;exitPerimeter=0;" edge="1" parent="1" source="VU2UuEI_NbV8B1_qW69L-26" target="VU2UuEI_NbV8B1_qW69L-16">
          <mxGeometry width="50" height="50" relative="1" as="geometry">
            <mxPoint x="650" y="240" as="sourcePoint" />
            <mxPoint x="700" y="190" as="targetPoint" />
            <Array as="points">
              <mxPoint x="1060" y="480" />
            </Array>
          </mxGeometry>
        </mxCell>
        <mxCell id="VU2UuEI_NbV8B1_qW69L-36" style="edgeStyle=orthogonalEdgeStyle;rounded=0;orthogonalLoop=1;jettySize=auto;html=1;entryX=0.145;entryY=1;entryDx=0;entryDy=-4.35;entryPerimeter=0;exitX=0.5;exitY=0;exitDx=0;exitDy=0;" edge="1" parent="1" source="VU2UuEI_NbV8B1_qW69L-18" target="VU2UuEI_NbV8B1_qW69L-14">
          <mxGeometry relative="1" as="geometry" />
        </mxCell>
        <mxCell id="VU2UuEI_NbV8B1_qW69L-37" style="edgeStyle=orthogonalEdgeStyle;rounded=0;orthogonalLoop=1;jettySize=auto;html=1;entryX=0.5;entryY=1;entryDx=0;entryDy=0;" edge="1" parent="1" source="VU2UuEI_NbV8B1_qW69L-26" target="VU2UuEI_NbV8B1_qW69L-3">
          <mxGeometry relative="1" as="geometry" />
        </mxCell>
        <mxCell id="VU2UuEI_NbV8B1_qW69L-38" value="Dataset Information" style="text;html=1;align=center;verticalAlign=middle;whiteSpace=wrap;rounded=0;" vertex="1" parent="1">
          <mxGeometry x="176" y="480" width="120" height="30" as="geometry" />
        </mxCell>
        <mxCell id="VU2UuEI_NbV8B1_qW69L-39" value="Kafka Topic" style="swimlane;fontStyle=0;childLayout=stackLayout;horizontal=1;startSize=30;horizontalStack=0;resizeParent=1;resizeParentMax=0;resizeLast=0;collapsible=1;marginBottom=0;whiteSpace=wrap;html=1;" vertex="1" parent="1">
          <mxGeometry x="523" y="34" width="140" height="90" as="geometry" />
        </mxCell>
        <mxCell id="VU2UuEI_NbV8B1_qW69L-40" value="Nhận dữ liệu streaming" style="text;strokeColor=none;fillColor=none;align=left;verticalAlign=middle;spacingLeft=4;spacingRight=4;overflow=hidden;points=[[0,0.5],[1,0.5]];portConstraint=eastwest;rotatable=0;whiteSpace=wrap;html=1;" vertex="1" parent="VU2UuEI_NbV8B1_qW69L-39">
          <mxGeometry y="30" width="140" height="60" as="geometry" />
        </mxCell>
        <mxCell id="VU2UuEI_NbV8B1_qW69L-41" style="edgeStyle=orthogonalEdgeStyle;rounded=0;orthogonalLoop=1;jettySize=auto;html=1;entryX=0.018;entryY=0.122;entryDx=0;entryDy=0;entryPerimeter=0;" edge="1" parent="1" source="VU2UuEI_NbV8B1_qW69L-40" target="VU2UuEI_NbV8B1_qW69L-6">
          <mxGeometry relative="1" as="geometry">
            <Array as="points">
              <mxPoint x="673" y="85" />
              <mxPoint x="673" y="157" />
            </Array>
          </mxGeometry>
        </mxCell>
        <mxCell id="VU2UuEI_NbV8B1_qW69L-42" style="edgeStyle=orthogonalEdgeStyle;rounded=0;orthogonalLoop=1;jettySize=auto;html=1;entryX=0.5;entryY=0;entryDx=0;entryDy=0;" edge="1" parent="1" source="VU2UuEI_NbV8B1_qW69L-43" target="VU2UuEI_NbV8B1_qW69L-48">
          <mxGeometry relative="1" as="geometry" />
        </mxCell>
        <mxCell id="VU2UuEI_NbV8B1_qW69L-43" value="Log Message" style="shape=cylinder3;whiteSpace=wrap;html=1;boundedLbl=1;backgroundOutline=1;size=15;" vertex="1" parent="1">
          <mxGeometry x="790" y="-116" width="60" height="80" as="geometry" />
        </mxCell>
        <mxCell id="VU2UuEI_NbV8B1_qW69L-44" style="edgeStyle=orthogonalEdgeStyle;rounded=0;orthogonalLoop=1;jettySize=auto;html=1;entryX=0;entryY=0;entryDx=0;entryDy=52.5;entryPerimeter=0;" edge="1" parent="1" source="VU2UuEI_NbV8B1_qW69L-39" target="VU2UuEI_NbV8B1_qW69L-43">
          <mxGeometry relative="1" as="geometry">
            <Array as="points">
              <mxPoint x="675" y="62" />
              <mxPoint x="675" y="-63" />
            </Array>
          </mxGeometry>
        </mxCell>
        <mxCell id="VU2UuEI_NbV8B1_qW69L-45" value="Phản hồi tráng thái dữ liệu" style="text;html=1;align=center;verticalAlign=middle;whiteSpace=wrap;rounded=0;rotation=270;" vertex="1" parent="1">
          <mxGeometry x="300" y="150" width="86" height="30" as="geometry" />
        </mxCell>
        <mxCell id="VU2UuEI_NbV8B1_qW69L-46" style="edgeStyle=orthogonalEdgeStyle;rounded=0;orthogonalLoop=1;jettySize=auto;html=1;exitX=0.25;exitY=1;exitDx=0;exitDy=0;entryX=0.25;entryY=0;entryDx=0;entryDy=0;" edge="1" parent="1" source="VU2UuEI_NbV8B1_qW69L-48" target="VU2UuEI_NbV8B1_qW69L-8">
          <mxGeometry relative="1" as="geometry" />
        </mxCell>
        <mxCell id="VU2UuEI_NbV8B1_qW69L-47" style="edgeStyle=orthogonalEdgeStyle;rounded=0;orthogonalLoop=1;jettySize=auto;html=1;" edge="1" parent="1" source="VU2UuEI_NbV8B1_qW69L-48" target="VU2UuEI_NbV8B1_qW69L-39">
          <mxGeometry relative="1" as="geometry" />
        </mxCell>
        <mxCell id="VU2UuEI_NbV8B1_qW69L-48" value="Producer Check thông tin dataset" style="rounded=0;whiteSpace=wrap;html=1;" vertex="1" parent="1">
          <mxGeometry x="340" y="48" width="120" height="60" as="geometry" />
        </mxCell>
        <mxCell id="VU2UuEI_NbV8B1_qW69L-49" style="edgeStyle=orthogonalEdgeStyle;rounded=0;orthogonalLoop=1;jettySize=auto;html=1;exitX=1;exitY=0;exitDx=0;exitDy=0;entryX=0.01;entryY=0.114;entryDx=0;entryDy=0;entryPerimeter=0;" edge="1" parent="1" source="VU2UuEI_NbV8B1_qW69L-4" target="VU2UuEI_NbV8B1_qW69L-48">
          <mxGeometry relative="1" as="geometry" />
        </mxCell>
        <mxCell id="VU2UuEI_NbV8B1_qW69L-50" style="edgeStyle=orthogonalEdgeStyle;rounded=0;orthogonalLoop=1;jettySize=auto;html=1;exitX=0;exitY=0.75;exitDx=0;exitDy=0;entryX=0.99;entryY=0.638;entryDx=0;entryDy=0;entryPerimeter=0;" edge="1" parent="1" source="VU2UuEI_NbV8B1_qW69L-48" target="VU2UuEI_NbV8B1_qW69L-4">
          <mxGeometry relative="1" as="geometry" />
        </mxCell>
        <mxCell id="VU2UuEI_NbV8B1_qW69L-51" style="edgeStyle=orthogonalEdgeStyle;rounded=0;orthogonalLoop=1;jettySize=auto;html=1;entryX=0;entryY=0.5;entryDx=0;entryDy=0;" edge="1" parent="1" source="VU2UuEI_NbV8B1_qW69L-52" target="VU2UuEI_NbV8B1_qW69L-55">
          <mxGeometry relative="1" as="geometry" />
        </mxCell>
        <mxCell id="VU2UuEI_NbV8B1_qW69L-52" value="Dữ liệu đầu vào" style="rounded=0;whiteSpace=wrap;html=1;" vertex="1" parent="1">
          <mxGeometry x="77" y="745" width="120" height="60" as="geometry" />
        </mxCell>
        <mxCell id="VU2UuEI_NbV8B1_qW69L-53" style="edgeStyle=orthogonalEdgeStyle;rounded=0;orthogonalLoop=1;jettySize=auto;html=1;entryX=0.5;entryY=0;entryDx=0;entryDy=0;" edge="1" parent="1" source="VU2UuEI_NbV8B1_qW69L-55" target="VU2UuEI_NbV8B1_qW69L-56">
          <mxGeometry relative="1" as="geometry" />
        </mxCell>
        <mxCell id="VU2UuEI_NbV8B1_qW69L-54" style="edgeStyle=orthogonalEdgeStyle;rounded=0;orthogonalLoop=1;jettySize=auto;html=1;entryX=0;entryY=0.5;entryDx=0;entryDy=0;" edge="1" parent="1" source="VU2UuEI_NbV8B1_qW69L-55">
          <mxGeometry relative="1" as="geometry">
            <mxPoint x="510.9999999999998" y="774" as="targetPoint" />
          </mxGeometry>
        </mxCell>
        <mxCell id="VU2UuEI_NbV8B1_qW69L-55" value="Kiểm tra Authenticate" style="rhombus;whiteSpace=wrap;html=1;" vertex="1" parent="1">
          <mxGeometry x="250" y="735" width="141" height="80" as="geometry" />
        </mxCell>
        <mxCell id="VU2UuEI_NbV8B1_qW69L-56" value="Trả về Upload Fail" style="ellipse;whiteSpace=wrap;html=1;" vertex="1" parent="1">
          <mxGeometry x="260.5" y="877" width="120" height="80" as="geometry" />
        </mxCell>
        <mxCell id="VU2UuEI_NbV8B1_qW69L-57" value="False" style="text;html=1;align=center;verticalAlign=middle;whiteSpace=wrap;rounded=0;" vertex="1" parent="1">
          <mxGeometry x="320.5" y="826" width="60" height="30" as="geometry" />
        </mxCell>
        <mxCell id="VU2UuEI_NbV8B1_qW69L-58" value="Kiểm tra thông tin dữ liệu" style="rhombus;whiteSpace=wrap;html=1;" vertex="1" parent="1">
          <mxGeometry x="511" y="734" width="182" height="80" as="geometry" />
        </mxCell>
      </root>
    </mxGraphModel>
  </diagram>
</mxfile>
